<svg
  width="10"
  height="14"
  viewBox="0 0 10 14"
  fill="none"
  xmlns="http://www.w3.org/2000/svg"
>
  <path
    d="M5.625 8.18182H3.125C2.95924 8.18182 2.80027 8.25365 2.68306 8.38152C2.56585 8.50938 2.5 8.68281 2.5 8.86364C2.5 9.04447 2.56585 9.21789 2.68306 9.34575C2.80027 9.47362 2.95924 9.54545 3.125 9.54545H5.625C5.79076 9.54545 5.94973 9.47362 6.06694 9.34575C6.18415 9.21789 6.25 9.04447 6.25 8.86364C6.25 8.68281 6.18415 8.50938 6.06694 8.38152C5.94973 8.25365 5.79076 8.18182 5.625 8.18182ZM8.125 1.36364H7.3875C7.25855 0.965762 7.01996 0.621135 6.70442 0.377003C6.38888 0.132872 6.01184 0.00118603 5.625 0H4.375C3.98816 0.00118603 3.61112 0.132872 3.29558 0.377003C2.98004 0.621135 2.74145 0.965762 2.6125 1.36364H1.875C1.37772 1.36364 0.900806 1.57914 0.549175 1.96274C0.197544 2.34633 0 2.8666 0 3.40909V11.5909C0 12.1334 0.197544 12.6537 0.549175 13.0373C0.900806 13.4209 1.37772 13.6364 1.875 13.6364H8.125C8.62228 13.6364 9.09919 13.4209 9.45083 13.0373C9.80246 12.6537 10 12.1334 10 11.5909V3.40909C10 2.8666 9.80246 2.34633 9.45083 1.96274C9.09919 1.57914 8.62228 1.36364 8.125 1.36364V1.36364ZM3.75 2.04545C3.75 1.86463 3.81585 1.6912 3.93306 1.56334C4.05027 1.43547 4.20924 1.36364 4.375 1.36364H5.625C5.79076 1.36364 5.94973 1.43547 6.06694 1.56334C6.18415 1.6912 6.25 1.86463 6.25 2.04545V2.72727H3.75V2.04545ZM8.75 11.5909C8.75 11.7717 8.68415 11.9452 8.56694 12.073C8.44973 12.2009 8.29076 12.2727 8.125 12.2727H1.875C1.70924 12.2727 1.55027 12.2009 1.43306 12.073C1.31585 11.9452 1.25 11.7717 1.25 11.5909V3.40909C1.25 3.22826 1.31585 3.05484 1.43306 2.92697C1.55027 2.79911 1.70924 2.72727 1.875 2.72727H2.5V3.40909C2.5 3.58992 2.56585 3.76334 2.68306 3.89121C2.80027 4.01907 2.95924 4.09091 3.125 4.09091H6.875C7.04076 4.09091 7.19973 4.01907 7.31694 3.89121C7.43415 3.76334 7.5 3.58992 7.5 3.40909V2.72727H8.125C8.29076 2.72727 8.44973 2.79911 8.56694 2.92697C8.68415 3.05484 8.75 3.22826 8.75 3.40909V11.5909ZM6.875 5.45455H3.125C2.95924 5.45455 2.80027 5.52638 2.68306 5.65425C2.56585 5.78211 2.5 5.95553 2.5 6.13636C2.5 6.31719 2.56585 6.49062 2.68306 6.61848C2.80027 6.74635 2.95924 6.81818 3.125 6.81818H6.875C7.04076 6.81818 7.19973 6.74635 7.31694 6.61848C7.43415 6.49062 7.5 6.31719 7.5 6.13636C7.5 5.95553 7.43415 5.78211 7.31694 5.65425C7.19973 5.52638 7.04076 5.45455 6.875 5.45455Z"
    fill="#16A34A"
  />
</svg>